<svg xmlns="http://www.w3.org/2000/svg" xmlns:xlink="http://www.w3.org/1999/xlink" width="272" height="110" viewBox="0 0 272 110">
  <defs>
    <filter id="Rectangle_1" x="0" y="0" width="272" height="110" filterUnits="userSpaceOnUse">
      <feOffset dx="2" dy="2" input="SourceAlpha"/>
      <feGaussianBlur stdDeviation="5" result="blur"/>
      <feFlood flood-opacity="0.161"/>
      <feComposite operator="in" in2="blur"/>
      <feComposite in="SourceGraphic"/>
    </filter>
  </defs>
  <g id="Group_15" data-name="Group 15" transform="translate(-78 -103)">
    <g transform="matrix(1, 0, 0, 1, 78, 103)" filter="url(#Rectangle_1)">
      <rect id="Rectangle_1-2" data-name="Rectangle 1" width="242" height="80" rx="10" transform="translate(13 13)"/>
    </g>
    <g id="Group_14" data-name="Group 14" transform="translate(-83 -19)">
      <text id="Get_it_on" data-name="Get it on" transform="translate(251 169)" fill="#fff" font-size="18" font-family="Lato-Heavy, Lato" font-weight="800"><tspan x="0" y="0">Get it on</tspan></text>
      <text id="App_Store" data-name="App Store" transform="translate(251 195)" fill="#fff" font-size="22" font-family="Lato-Regular, Lato"><tspan x="0" y="0">App Store</tspan></text>
    </g>
    <path id="icons8-apple-logo_2_" data-name="icons8-apple-logo (2)" d="M40.232,31.081a29.666,29.666,0,0,1-2.661,4.972c-1.729,2.633-4.169,5.918-7.187,5.94-2.685.022-3.377-1.751-7.02-1.722s-4.4,1.755-7.089,1.727c-3.018-.028-5.328-2.988-7.059-5.615C4.376,29.012,3.865,20.373,6.856,15.777A10.708,10.708,0,0,1,15.463,10.6c3.2,0,5.214,1.759,7.861,1.759,2.569,0,4.133-1.764,7.835-1.764a10.46,10.46,0,0,1,7.877,4.159C32.115,18.549,33.239,28.436,40.232,31.081ZM28.349,7.656a8.989,8.989,0,0,0,2-6.656,9.725,9.725,0,0,0-6.269,3.371,8.348,8.348,0,0,0-2.048,6.491A8.169,8.169,0,0,0,28.349,7.656Z" transform="translate(104 135)" fill="#fff"/>
  </g>
</svg>
