<svg xmlns="http://www.w3.org/2000/svg" xmlns:xlink="http://www.w3.org/1999/xlink" width="272" height="110" viewBox="0 0 272 110">
  <defs>
    <filter id="Rectangle_1" x="0" y="0" width="272" height="110" filterUnits="userSpaceOnUse">
      <feOffset dx="2" dy="2" input="SourceAlpha"/>
      <feGaussianBlur stdDeviation="5" result="blur"/>
      <feFlood flood-opacity="0.161"/>
      <feComposite operator="in" in2="blur"/>
      <feComposite in="SourceGraphic"/>
    </filter>
  </defs>
  <g id="Group_18" data-name="Group 18" transform="translate(-78 -232)">
    <g id="Group_16" data-name="Group 16" transform="translate(0 129)">
      <g transform="matrix(1, 0, 0, 1, 78, 103)" filter="url(#Rectangle_1)">
        <rect id="Rectangle_1-2" data-name="Rectangle 1" width="242" height="80" rx="10" transform="translate(13 13)"/>
      </g>
      <g id="Group_14" data-name="Group 14" transform="translate(-86 -19)">
        <text id="Get_it_on" data-name="Get it on" transform="translate(251 169)" fill="#fff" font-size="18" font-family="Lato-Heavy, Lato" font-weight="800"><tspan x="0" y="0">Get it on</tspan></text>
        <text id="Mac_App_Store" data-name="Mac App Store" transform="translate(251 195)" fill="#fff" font-size="22" font-family="Lato-Regular, Lato"><tspan x="0" y="0">Mac App Store</tspan></text>
      </g>
    </g>
    <path id="icons8-apple-app-store_5_" data-name="icons8-apple-app-store (5)" d="M19.5,2A17.5,17.5,0,1,0,37,19.5,17.52,17.52,0,0,0,19.5,2ZM16.765,12.52a.861.861,0,0,1,1.178-.309l.764.447a.863.863,0,0,1,.309,1.179l-.757,1.3-2.25-1.316Zm-8.43,5.707h4.677l-1.489,2.515H8.336Zm1.126,9.7a.171.171,0,0,1-.285-.166l1.088-4.118,2.25,1.316Zm1.087-4.77,5.274-9.025,2.25,1.316L12.8,24.472Zm4.833-2.413,1.4-2.515h5.392l1.4,2.515Zm2.735-10.358a.861.861,0,0,1,.311-1.176l.7-.407a.86.86,0,0,1,1.176.311l5.965,10.269-2.187,1.271Zm6.21,10.691L26.514,19.8l1.265,2.177-2.187,1.271Zm4.6,6.784c-.05.069-.18.011-.218-.049-.1-.161-.011-.379-.333-.871-.59-.9-1.371-.721-2.128-1.989-.133-.223-.584-1.246,0-1.6.311-.186.842-.5,1.2-.7.6-.341,1.157.376,1.465.826A4.368,4.368,0,0,1,28.931,27.859Zm1.7-7.116H27.494l-1.369-2.515h4.507Z" transform="translate(107 266)" fill="#fff"/>
  </g>
</svg>
