<svg xmlns="http://www.w3.org/2000/svg" xmlns:xlink="http://www.w3.org/1999/xlink" width="272" height="110" viewBox="0 0 272 110">
  <defs>
    <filter id="Rectangle_1" x="0" y="0" width="272" height="110" filterUnits="userSpaceOnUse">
      <feOffset dx="2" dy="2" input="SourceAlpha"/>
      <feGaussianBlur stdDeviation="5" result="blur"/>
      <feFlood flood-opacity="0.161"/>
      <feComposite operator="in" in2="blur"/>
      <feComposite in="SourceGraphic"/>
    </filter>
  </defs>
  <g id="Group_19" data-name="Group 19" transform="translate(-78 -331)">
    <g id="Group_17" data-name="Group 17" transform="translate(0 228)">
      <g transform="matrix(1, 0, 0, 1, 78, 103)" filter="url(#Rectangle_1)">
        <rect id="Rectangle_1-2" data-name="Rectangle 1" width="242" height="80" rx="10" transform="translate(13 13)"/>
      </g>
      <g id="Group_14" data-name="Group 14" transform="translate(-89 -19)">
        <text id="Get_it_on" data-name="Get it on" transform="translate(251 169)" fill="#fff" font-size="18" font-family="Lato-Heavy, Lato" font-weight="800"><tspan x="0" y="0">Get it on</tspan></text>
        <text id="Windows_Store" data-name="Windows Store" transform="translate(251 195)" fill="#fff" font-size="22" font-family="Lato-Regular, Lato"><tspan x="0" y="0">Windows Store</tspan></text>
      </g>
    </g>
    <g id="g18086" transform="translate(109.996 364.234)">
      <g id="bag_1_">
        <g id="handles_1_" transform="translate(7.283)">
          <path id="path205" d="M1340.786,895.261c-1.623.57-2.808,1.053-2.808,4.124v1.492l.965-.175v-1.272c-.044-2.106.526-2.545,1.93-3.159A3.455,3.455,0,0,0,1340.786,895.261Z" transform="translate(-1332.669 -891.776)" fill="#fff"/>
          <path id="path207" d="M1397.88,887.086a6.414,6.414,0,0,1,.132.965c2.545-.351,2.5.7,2.5,2.852v.79l.965-.175V890.9C1401.478,887.525,1400.951,886.6,1397.88,887.086Z" transform="translate(-1386.956 -884.258)" fill="#fff"/>
          <path id="path209" d="M1282.317,868.061v-4.475c-.044-2.764,1.4-3.6,4.036-4.212,3.949-.921,4.212,1.623,4.212,3.247v3.773l.965-.175v-3.51c0-3.071-.965-5.4-5.4-4.387-2.369.526-4.782,1.141-4.782,5.177v4.738Z" transform="translate(-1281.351 -858.082)" fill="#fff"/>
        </g>
        <path id="path211" d="M1230.341,937.848l-26.675,5.353v19.392l26.675,5.353,5.309-1.93V939.822Zm-15,20.708-5.923-.834v-4.914h5.923Zm0-6.493h-5.923v-4.519l5.923-.834Zm8.2,7.634-7.459-1.1v-5.791h7.459Zm0-7.634h-7.459v-5.4l7.459-1.1Z" transform="translate(-1203.665 -930.37)" fill="#fff"/>
      </g>
    </g>
  </g>
</svg>
